<svg width="800" height="400" viewBox="0 0 800 400" xmlns="http://www.w3.org/2000/svg"><mask id="satori_om-id"><rect x="0" y="0" width="800" height="400" fill="#fff"/></mask><rect x="0" y="0" width="800" height="400" fill="white"/><mask id="satori_om-id-0"><rect x="42" y="42" width="348" height="24" fill="#fff"/></mask><mask id="satori_om-id-0-0"><rect x="42" y="42" width="24" height="24" fill="#fff"/></mask><rect x="42" y="42" width="24" height="24" fill="black"/><mask id="satori_om-id-0-1"><rect x="74" y="42" width="316" height="24" fill="#fff"/></mask><path fill="black" d="M78.3 61.4L75.3 61.4L75.3 46.8L78.3 46.8L78.3 52.8L84.6 52.8L84.6 46.8L87.7 46.8L87.7 61.4L84.6 61.4L84.6 55.4L78.3 55.4L78.3 61.4ZM92.9 61.4L89.9 61.4L89.9 46.8L92.9 46.8L92.9 53.2L93.1 53.2L98.4 46.8L102.1 46.8L96.7 53.3L102.1 61.4L98.4 61.4L94.5 55.4L92.9 57.2L92.9 61.4ZM112.3 56.0L112.3 46.8L115.4 46.8L115.4 56.3Q115.4 57.9 114.6 59.1Q113.9 60.3 112.5 60.9Q111.2 61.6 109.4 61.6L109.4 61.6Q107.6 61.6 106.2 60.9Q104.8 60.3 104.1 59.1Q103.3 57.9 103.3 56.3L103.3 56.3L103.3 46.8L106.4 46.8L106.4 56.0Q106.4 56.8 106.8 57.5Q107.1 58.1 107.8 58.5Q108.5 58.9 109.4 58.9L109.4 58.9Q110.3 58.9 110.9 58.5Q111.6 58.1 112.0 57.5Q112.3 56.8 112.3 56.0L112.3 56.0ZM128.4 51.0L125.5 51.0Q125.4 50.2 124.8 49.7Q124.1 49.2 123.0 49.2L123.0 49.2Q122.3 49.2 121.7 49.4Q121.2 49.6 120.9 50.0Q120.7 50.4 120.7 50.8L120.7 50.8Q120.7 51.2 120.8 51.5Q121.0 51.8 121.3 52.0Q121.7 52.2 122.1 52.4Q122.5 52.5 123.0 52.6L123.0 52.6L124.3 52.9Q125.2 53.2 126.0 53.5Q126.8 53.9 127.4 54.4Q128.0 54.9 128.3 55.6Q128.6 56.3 128.6 57.2L128.6 57.2Q128.6 58.6 128.0 59.5Q127.3 60.5 126.0 61.0Q124.8 61.6 123.0 61.6L123.0 61.6Q121.2 61.6 119.9 61.0Q118.6 60.5 117.9 59.4Q117.2 58.4 117.1 56.8L117.1 56.8L120.1 56.8Q120.2 57.5 120.5 58.0Q120.9 58.5 121.5 58.8Q122.2 59.0 123.0 59.0L123.0 59.0Q123.7 59.0 124.3 58.8Q124.9 58.5 125.2 58.1Q125.5 57.7 125.5 57.2L125.5 57.2Q125.5 56.7 125.3 56.4Q125.0 56.1 124.4 55.8Q123.9 55.6 123.1 55.4L123.1 55.4L121.5 55.0Q119.6 54.5 118.6 53.6Q117.5 52.6 117.5 51.0L117.5 51.0Q117.5 49.7 118.2 48.7Q118.9 47.7 120.2 47.2Q121.4 46.6 123.0 46.6L123.0 46.6Q124.7 46.6 125.9 47.2Q127.1 47.7 127.7 48.7Q128.4 49.7 128.4 51.0L128.4 51.0ZM134.3 49.4L129.8 49.4L129.8 46.8L141.8 46.8L141.8 49.4L137.3 49.4L137.3 61.4L134.3 61.4L134.3 49.4Z M150.8 61.4L147.7 61.4L147.7 46.8L153.5 46.8Q155.1 46.8 156.3 47.4Q157.5 48.0 158.1 49.1Q158.7 50.1 158.7 51.6L158.7 51.6Q158.7 53.0 158.1 54.1Q157.4 55.1 156.3 55.7Q155.1 56.2 153.4 56.2L153.4 56.2L149.6 56.2L149.6 53.7L152.9 53.7Q153.8 53.7 154.4 53.5Q155.0 53.3 155.2 52.8Q155.5 52.3 155.5 51.6L155.5 51.6Q155.5 50.9 155.2 50.4Q155.0 49.9 154.4 49.6Q153.8 49.3 152.9 49.3L152.9 49.3L150.8 49.3L150.8 61.4ZM152.3 54.8L155.6 54.8L159.2 61.4L155.8 61.4L152.3 54.8ZM165.2 61.6L165.2 61.6Q163.6 61.6 162.4 60.9Q161.2 60.2 160.5 58.9Q159.9 57.6 159.9 56.0L159.9 56.0Q159.9 54.3 160.5 53.0Q161.2 51.7 162.4 51.0Q163.6 50.3 165.2 50.3L165.2 50.3Q166.9 50.3 168.1 51.0Q169.3 51.7 170.0 53.0Q170.6 54.3 170.6 56.0L170.6 56.0Q170.6 57.6 170.0 58.9Q169.3 60.2 168.1 60.9Q166.9 61.6 165.2 61.6ZM165.3 59.2L165.3 59.2Q166.0 59.2 166.5 58.8Q167.0 58.4 167.3 57.6Q167.5 56.9 167.5 55.9L167.5 55.9Q167.5 55.0 167.3 54.2Q167.0 53.5 166.5 53.1Q166.0 52.6 165.3 52.6L165.3 52.6Q164.5 52.6 164.0 53.1Q163.5 53.5 163.2 54.2Q162.9 55.0 162.9 55.9L162.9 55.9Q162.9 56.9 163.2 57.6Q163.5 58.4 164.0 58.8Q164.5 59.2 165.3 59.2ZM175.3 61.4L172.3 61.4L172.3 46.8L175.3 46.8L175.3 52.3L175.4 52.3Q175.6 51.9 176.0 51.4Q176.4 50.9 177.0 50.6Q177.6 50.3 178.5 50.3L178.5 50.3Q179.7 50.3 180.7 50.9Q181.8 51.6 182.4 52.8Q183.0 54.1 183.0 55.9L183.0 55.9Q183.0 57.8 182.4 59.0Q181.8 60.3 180.8 60.9Q179.8 61.6 178.5 61.6L178.5 61.6Q177.7 61.6 177.0 61.3Q176.4 61.0 176.0 60.5Q175.6 60.1 175.4 59.6L175.4 59.6L175.3 59.6L175.3 61.4ZM175.3 55.9L175.3 55.9Q175.3 56.9 175.6 57.6Q175.8 58.3 176.3 58.7Q176.8 59.1 177.6 59.1L177.6 59.1Q178.3 59.1 178.8 58.7Q179.3 58.3 179.6 57.6Q179.9 56.9 179.9 55.9L179.9 55.9Q179.9 55.0 179.6 54.3Q179.3 53.5 178.8 53.1Q178.3 52.7 177.6 52.7L177.6 52.7Q176.8 52.7 176.3 53.1Q175.8 53.5 175.6 54.2Q175.3 54.9 175.3 55.9ZM189.6 61.6L189.6 61.6Q187.9 61.6 186.7 60.9Q185.5 60.2 184.9 58.9Q184.2 57.6 184.2 56.0L184.2 56.0Q184.2 54.3 184.9 53.0Q185.5 51.7 186.7 51.0Q187.9 50.3 189.6 50.3L189.6 50.3Q191.2 50.3 192.4 51.0Q193.6 51.7 194.3 53.0Q194.9 54.3 194.9 56.0L194.9 56.0Q194.9 57.6 194.3 58.9Q193.6 60.2 192.4 60.9Q191.2 61.6 189.6 61.6ZM189.6 59.2L189.6 59.2Q190.3 59.2 190.9 58.8Q191.4 58.4 191.6 57.6Q191.9 56.9 191.9 55.9L191.9 55.9Q191.9 55.0 191.6 54.2Q191.4 53.5 190.9 53.1Q190.3 52.6 189.6 52.6L189.6 52.6Q188.8 52.6 188.3 53.1Q187.8 53.5 187.5 54.2Q187.3 55.0 187.3 55.9L187.3 55.9Q187.3 56.9 187.5 57.6Q187.8 58.4 188.3 58.8Q188.8 59.2 189.6 59.2ZM195.8 50.5L202.4 50.5L202.4 52.7L195.8 52.7L195.8 50.5ZM197.3 58.4L197.3 47.9L200.4 47.9L200.4 58.0Q200.4 58.4 200.5 58.7Q200.6 58.9 200.8 59.0Q201.1 59.1 201.4 59.1L201.4 59.1Q201.6 59.1 201.8 59.0Q202.0 59.0 202.1 59.0L202.1 59.0L202.6 61.2Q202.4 61.3 202.0 61.4Q201.6 61.5 201.0 61.5L201.0 61.5Q199.9 61.6 199.0 61.2Q198.2 60.9 197.8 60.2Q197.3 59.5 197.3 58.4L197.3 58.4ZM207.1 61.4L204.1 61.4L204.1 50.5L207.1 50.5L207.1 61.4ZM205.6 49.1L205.6 49.1Q204.9 49.1 204.4 48.6Q203.9 48.2 203.9 47.5L203.9 47.5Q203.9 46.9 204.4 46.4Q204.9 46.0 205.6 46.0L205.6 46.0Q206.2 46.0 206.7 46.4Q207.2 46.9 207.2 47.5L207.2 47.5Q207.2 48.2 206.7 48.6Q206.2 49.1 205.6 49.1ZM214.1 61.6L214.1 61.6Q212.4 61.6 211.2 60.9Q210.0 60.2 209.4 58.9Q208.7 57.6 208.7 56.0L208.7 56.0Q208.7 54.3 209.4 53.0Q210.0 51.8 211.2 51.0Q212.4 50.3 214.1 50.3L214.1 50.3Q215.5 50.3 216.6 50.8Q217.7 51.4 218.3 52.3Q218.9 53.2 219.0 54.5L219.0 54.5L216.1 54.5Q216.0 53.7 215.5 53.2Q215.0 52.7 214.1 52.7L214.1 52.7Q213.4 52.7 212.9 53.1Q212.4 53.4 212.1 54.2Q211.8 54.9 211.8 55.9L211.8 55.9Q211.8 57.0 212.1 57.7Q212.4 58.4 212.9 58.8Q213.4 59.2 214.1 59.2L214.1 59.2Q214.7 59.2 215.1 59.0Q215.5 58.8 215.8 58.4Q216.0 58.0 216.1 57.4L216.1 57.4L219.0 57.4Q218.9 58.6 218.3 59.6Q217.7 60.5 216.6 61.1Q215.6 61.6 214.1 61.6ZM229.7 53.6L229.7 53.6L226.9 53.7Q226.8 53.4 226.6 53.1Q226.4 52.8 226.0 52.6Q225.6 52.5 225.1 52.5L225.1 52.5Q224.4 52.5 223.9 52.8Q223.4 53.1 223.4 53.5L223.4 53.5Q223.4 53.9 223.7 54.2Q224.0 54.5 224.8 54.6L224.8 54.6L226.8 55.0Q228.4 55.4 229.1 56.1Q229.9 56.8 229.9 58.0L229.9 58.0Q229.9 59.1 229.3 59.9Q228.7 60.7 227.6 61.1Q226.5 61.6 225.1 61.6L225.1 61.6Q222.9 61.6 221.6 60.7Q220.3 59.8 220.1 58.2L220.1 58.2L223.1 58.1Q223.2 58.7 223.7 59.1Q224.3 59.4 225.1 59.4L225.1 59.4Q225.9 59.4 226.4 59.1Q226.8 58.8 226.8 58.3L226.8 58.3Q226.8 57.9 226.5 57.6Q226.2 57.4 225.5 57.2L225.5 57.2L223.6 56.8Q222.0 56.5 221.2 55.7Q220.4 54.9 220.4 53.7L220.4 53.7Q220.4 52.7 221.0 51.9Q221.6 51.1 222.6 50.7Q223.6 50.3 225.0 50.3L225.0 50.3Q227.1 50.3 228.3 51.2Q229.5 52.1 229.7 53.6Z M240.0 49.4L235.5 49.4L235.5 46.8L247.5 46.8L247.5 49.4L243.0 49.4L243.0 61.4L240.0 61.4L240.0 49.4ZM252.4 61.6L252.4 61.6Q250.8 61.6 249.6 60.9Q248.3 60.2 247.7 59.0Q247.0 57.7 247.0 56.0L247.0 56.0Q247.0 54.3 247.7 53.0Q248.3 51.7 249.5 51.0Q250.7 50.3 252.3 50.3L252.3 50.3Q253.4 50.3 254.3 50.7Q255.3 51.0 256.0 51.7Q256.7 52.4 257.1 53.4Q257.5 54.5 257.5 55.9L257.5 55.9L257.5 56.7L248.2 56.7L248.2 54.8L254.6 54.8Q254.6 54.2 254.3 53.7Q254.0 53.2 253.5 52.9Q253.0 52.6 252.4 52.6L252.4 52.6Q251.7 52.6 251.2 52.9Q250.6 53.2 250.3 53.7Q250.0 54.3 250.0 54.9L250.0 54.9L250.0 56.7Q250.0 57.5 250.3 58.1Q250.6 58.7 251.2 59.0Q251.7 59.3 252.5 59.3L252.5 59.3Q253.0 59.3 253.4 59.2Q253.8 59.0 254.1 58.8Q254.4 58.5 254.6 58.1L254.6 58.1L257.4 58.3Q257.2 59.3 256.5 60.0Q255.9 60.8 254.8 61.2Q253.8 61.6 252.4 61.6ZM262.2 61.6L262.2 61.6Q261.2 61.6 260.4 61.2Q259.5 60.8 259.1 60.1Q258.6 59.4 258.6 58.3L258.6 58.3Q258.6 57.4 258.9 56.8Q259.3 56.2 259.8 55.8Q260.4 55.4 261.1 55.2Q261.9 55.0 262.7 55.0L262.7 55.0Q263.6 54.9 264.2 54.8Q264.8 54.7 265.1 54.5Q265.3 54.3 265.3 54.0L265.3 54.0L265.3 53.9Q265.3 53.3 264.9 52.9Q264.5 52.5 263.7 52.5L263.7 52.5Q262.9 52.5 262.4 52.9Q261.9 53.3 261.8 53.8L261.8 53.8L259.0 53.6Q259.2 52.6 259.8 51.8Q260.4 51.1 261.4 50.7Q262.4 50.3 263.7 50.3L263.7 50.3Q264.6 50.3 265.5 50.5Q266.3 50.8 267.0 51.2Q267.6 51.6 268.0 52.3Q268.4 53.0 268.4 54.0L268.4 54.0L268.4 61.4L265.5 61.4L265.5 59.9L265.4 59.9Q265.1 60.4 264.7 60.8Q264.3 61.1 263.6 61.4Q263.0 61.6 262.2 61.6ZM263.1 59.5L263.1 59.5Q263.8 59.5 264.3 59.2Q264.8 59.0 265.1 58.5Q265.4 58.1 265.4 57.5L265.4 57.5L265.4 56.3Q265.2 56.4 265.0 56.5Q264.7 56.6 264.4 56.6Q264.1 56.7 263.8 56.7Q263.5 56.8 263.3 56.8L263.3 56.8Q262.7 56.9 262.3 57.1Q261.9 57.2 261.7 57.5Q261.5 57.8 261.5 58.2L261.5 58.2Q261.5 58.8 261.9 59.2Q262.4 59.5 263.1 59.5ZM273.4 61.4L270.4 61.4L270.4 50.5L273.3 50.5L273.3 52.4L273.4 52.4Q273.7 51.4 274.5 50.9Q275.3 50.3 276.4 50.3L276.4 50.3Q277.6 50.3 278.4 50.9Q279.1 51.4 279.4 52.4L279.4 52.4L279.5 52.4Q279.9 51.5 280.7 50.9Q281.6 50.3 282.8 50.3L282.8 50.3Q284.3 50.3 285.3 51.3Q286.2 52.3 286.2 54.0L286.2 54.0L286.2 61.4L283.2 61.4L283.2 54.6Q283.2 53.7 282.7 53.3Q282.3 52.8 281.5 52.8L281.5 52.8Q280.7 52.8 280.2 53.3Q279.8 53.9 279.8 54.7L279.8 54.7L279.8 61.4L276.9 61.4L276.9 54.6Q276.9 53.8 276.4 53.3Q275.9 52.8 275.2 52.8L275.2 52.8Q274.7 52.8 274.3 53.1Q273.9 53.3 273.7 53.8Q273.4 54.2 273.4 54.8L273.4 54.8L273.4 61.4Z M296.4 46.1L299.0 46.1L294.3 63.6L291.7 63.6L296.4 46.1Z M309.1 61.4L306.1 61.4L306.1 46.8L311.8 46.8Q313.5 46.8 314.6 47.4Q315.8 48.0 316.4 49.1Q317.0 50.1 317.0 51.6L317.0 51.6Q317.0 53.0 316.4 54.1Q315.8 55.1 314.6 55.7Q313.4 56.2 311.7 56.2L311.7 56.2L307.9 56.2L307.9 53.7L311.2 53.7Q312.1 53.7 312.7 53.5Q313.3 53.3 313.6 52.8Q313.9 52.3 313.9 51.6L313.9 51.6Q313.9 50.9 313.6 50.4Q313.3 49.9 312.7 49.6Q312.1 49.3 311.2 49.3L311.2 49.3L309.1 49.3L309.1 61.4ZM310.6 54.8L313.9 54.8L317.5 61.4L314.1 61.4L310.6 54.8ZM323.6 61.6L323.6 61.6Q321.9 61.6 320.7 60.9Q319.5 60.2 318.8 58.9Q318.2 57.6 318.2 56.0L318.2 56.0Q318.2 54.3 318.8 53.0Q319.5 51.7 320.7 51.0Q321.9 50.3 323.6 50.3L323.6 50.3Q325.2 50.3 326.4 51.0Q327.6 51.7 328.3 53.0Q328.9 54.3 328.9 56.0L328.9 56.0Q328.9 57.6 328.3 58.9Q327.6 60.2 326.4 60.9Q325.2 61.6 323.6 61.6ZM323.6 59.2L323.6 59.2Q324.3 59.2 324.8 58.8Q325.3 58.4 325.6 57.6Q325.9 56.9 325.9 55.9L325.9 55.9Q325.9 55.0 325.6 54.2Q325.3 53.5 324.8 53.1Q324.3 52.6 323.6 52.6L323.6 52.6Q322.8 52.6 322.3 53.1Q321.8 53.5 321.5 54.2Q321.3 55.0 321.3 55.9L321.3 55.9Q321.3 56.9 321.5 57.6Q321.8 58.4 322.3 58.8Q322.8 59.2 323.6 59.2ZM333.6 61.4L330.6 61.4L330.6 46.8L333.7 46.8L333.7 52.3L333.8 52.3Q334.0 51.9 334.3 51.4Q334.7 50.9 335.3 50.6Q336.0 50.3 336.9 50.3L336.9 50.3Q338.1 50.3 339.1 50.9Q340.1 51.6 340.7 52.8Q341.3 54.1 341.3 55.9L341.3 55.9Q341.3 57.8 340.7 59.0Q340.1 60.3 339.1 60.9Q338.1 61.6 336.9 61.6L336.9 61.6Q336.0 61.6 335.4 61.3Q334.8 61.0 334.4 60.5Q334.0 60.1 333.8 59.6L333.8 59.6L333.6 59.6L333.6 61.4ZM333.6 55.9L333.6 55.9Q333.6 56.9 333.9 57.6Q334.1 58.3 334.7 58.7Q335.2 59.1 335.9 59.1L335.9 59.1Q336.6 59.1 337.2 58.7Q337.7 58.3 337.9 57.6Q338.2 56.9 338.2 55.9L338.2 55.9Q338.2 55.0 337.9 54.3Q337.7 53.5 337.2 53.1Q336.6 52.7 335.9 52.7L335.9 52.7Q335.2 52.7 334.7 53.1Q334.1 53.5 333.9 54.2Q333.6 54.9 333.6 55.9ZM347.9 61.6L347.9 61.6Q346.2 61.6 345.0 60.9Q343.8 60.2 343.2 58.9Q342.5 57.6 342.5 56.0L342.5 56.0Q342.5 54.3 343.2 53.0Q343.8 51.7 345.0 51.0Q346.2 50.3 347.9 50.3L347.9 50.3Q349.6 50.3 350.8 51.0Q352.0 51.7 352.6 53.0Q353.3 54.3 353.3 56.0L353.3 56.0Q353.3 57.6 352.6 58.9Q352.0 60.2 350.8 60.9Q349.6 61.6 347.9 61.6ZM347.9 59.2L347.9 59.2Q348.7 59.2 349.2 58.8Q349.7 58.4 349.9 57.6Q350.2 56.9 350.2 55.9L350.2 55.9Q350.2 55.0 349.9 54.2Q349.7 53.5 349.2 53.1Q348.7 52.6 347.9 52.6L347.9 52.6Q347.2 52.6 346.6 53.1Q346.1 53.5 345.9 54.2Q345.6 55.0 345.6 55.9L345.6 55.9Q345.6 56.9 345.9 57.6Q346.1 58.4 346.6 58.8Q347.2 59.2 347.9 59.2ZM359.9 61.6L359.9 61.6Q358.2 61.6 357.0 60.9Q355.8 60.2 355.1 58.9Q354.5 57.6 354.5 56.0L354.5 56.0Q354.5 54.3 355.1 53.0Q355.8 51.8 357.0 51.0Q358.2 50.3 359.8 50.3L359.8 50.3Q361.3 50.3 362.3 50.8Q363.4 51.4 364.0 52.3Q364.7 53.2 364.7 54.5L364.7 54.5L361.9 54.5Q361.8 53.7 361.2 53.2Q360.7 52.7 359.9 52.7L359.9 52.7Q359.2 52.7 358.7 53.1Q358.1 53.4 357.9 54.2Q357.6 54.9 357.6 55.9L357.6 55.9Q357.6 57.0 357.8 57.7Q358.1 58.4 358.7 58.8Q359.2 59.2 359.9 59.2L359.9 59.2Q360.4 59.2 360.8 59.0Q361.2 58.8 361.5 58.4Q361.8 58.0 361.9 57.4L361.9 57.4L364.7 57.4Q364.7 58.6 364.1 59.6Q363.4 60.5 362.4 61.1Q361.3 61.6 359.9 61.6ZM371.3 61.6L371.3 61.6Q369.6 61.6 368.4 60.9Q367.2 60.2 366.6 58.9Q365.9 57.6 365.9 56.0L365.9 56.0Q365.9 54.3 366.6 53.0Q367.2 51.7 368.4 51.0Q369.6 50.3 371.3 50.3L371.3 50.3Q372.9 50.3 374.1 51.0Q375.3 51.7 376.0 53.0Q376.7 54.3 376.7 56.0L376.7 56.0Q376.7 57.6 376.0 58.9Q375.3 60.2 374.1 60.9Q372.9 61.6 371.3 61.6ZM371.3 59.2L371.3 59.2Q372.1 59.2 372.6 58.8Q373.1 58.4 373.3 57.6Q373.6 56.9 373.6 55.9L373.6 55.9Q373.6 55.0 373.3 54.2Q373.1 53.5 372.6 53.1Q372.1 52.6 371.3 52.6L371.3 52.6Q370.5 52.6 370.0 53.1Q369.5 53.5 369.2 54.2Q369.0 55.0 369.0 55.9L369.0 55.9Q369.0 56.9 369.2 57.6Q369.5 58.4 370.0 58.8Q370.5 59.2 371.3 59.2ZM381.3 55.1L381.3 55.1L381.3 61.4L378.3 61.4L378.3 50.5L381.2 50.5L381.2 52.4L381.3 52.4Q381.7 51.4 382.5 50.9Q383.4 50.3 384.6 50.3L384.6 50.3Q385.7 50.3 386.6 50.8Q387.4 51.3 387.9 52.2Q388.4 53.2 388.4 54.4L388.4 54.4L388.4 61.4L385.3 61.4L385.3 55.0Q385.3 54.0 384.8 53.4Q384.3 52.8 383.4 52.8L383.4 52.8Q382.8 52.8 382.3 53.1Q381.9 53.4 381.6 53.9Q381.3 54.4 381.3 55.1Z "/><mask id="satori_om-id-1"><rect x="125" y="124" width="550" height="152" fill="#fff"/></mask><rect x="125" y="124" width="550" height="152" fill="black"/><path fill="white" d="M267.3 186.5L261.1 186.5L261.1 157.5L272.6 157.5Q275.9 157.5 278.2 158.6Q280.6 159.8 281.8 161.9Q283.0 164.1 283.0 167.0L283.0 167.0Q283.0 169.9 281.8 171.9Q280.5 174.0 278.2 175.1Q275.8 176.2 272.4 176.2L272.4 176.2L264.8 176.2L264.8 171.3L271.5 171.3Q273.2 171.3 274.4 170.8Q275.5 170.3 276.1 169.4Q276.7 168.4 276.7 167.0L276.7 167.0Q276.7 165.5 276.1 164.5Q275.5 163.5 274.4 163.0Q273.2 162.5 271.4 162.5L271.4 162.5L267.3 162.5L267.3 186.5ZM270.2 173.3L276.8 173.3L284.1 186.5L277.3 186.5L270.2 173.3ZM296.4 187.0L296.4 187.0Q293.1 187.0 290.7 185.6Q288.3 184.1 287.0 181.6Q285.7 179.1 285.7 175.7L285.7 175.7Q285.7 172.3 287.0 169.8Q288.3 167.3 290.7 165.9Q293.1 164.4 296.4 164.4L296.4 164.4Q299.7 164.4 302.1 165.9Q304.6 167.3 305.9 169.8Q307.2 172.3 307.2 175.7L307.2 175.7Q307.2 179.1 305.9 181.6Q304.6 184.1 302.1 185.6Q299.7 187.0 296.4 187.0ZM296.5 182.3L296.5 182.3Q298.0 182.3 299.0 181.4Q300.0 180.6 300.5 179.1Q301.0 177.6 301.0 175.7L301.0 175.7Q301.0 173.8 300.5 172.3Q300.0 170.8 299.0 169.9Q298.0 169.1 296.5 169.1L296.5 169.1Q294.9 169.1 293.9 169.9Q292.9 170.8 292.4 172.3Q291.8 173.8 291.8 175.7L291.8 175.7Q291.8 177.6 292.4 179.1Q292.9 180.6 293.9 181.4Q294.9 182.3 296.5 182.3ZM316.9 186.5L310.9 186.5L310.9 157.5L317.0 157.5L317.0 168.4L317.1 168.4Q317.5 167.5 318.3 166.6Q319.1 165.7 320.3 165.1Q321.5 164.4 323.4 164.4L323.4 164.4Q325.7 164.4 327.8 165.7Q329.8 166.9 331.0 169.4Q332.2 171.9 332.2 175.7L332.2 175.7Q332.2 179.3 331.0 181.8Q329.8 184.3 327.8 185.6Q325.8 186.9 323.3 186.9L323.3 186.9Q321.6 186.9 320.3 186.3Q319.1 185.7 318.3 184.8Q317.6 184.0 317.1 183.1L317.1 183.1L316.9 183.1L316.9 186.5ZM316.8 175.6L316.8 175.6Q316.8 177.6 317.4 179.0Q317.9 180.5 318.9 181.3Q320.0 182.1 321.4 182.1L321.4 182.1Q322.9 182.1 323.9 181.3Q324.9 180.5 325.5 179.0Q326.0 177.5 326.0 175.6L326.0 175.6Q326.0 173.7 325.5 172.3Q325.0 170.9 323.9 170.1Q322.9 169.3 321.4 169.3L321.4 169.3Q319.9 169.3 318.9 170.0Q317.9 170.8 317.4 172.3Q316.8 173.7 316.8 175.6ZM345.7 187.0L345.7 187.0Q342.4 187.0 340.0 185.6Q337.6 184.1 336.3 181.6Q335.0 179.1 335.0 175.7L335.0 175.7Q335.0 172.3 336.3 169.8Q337.6 167.3 340.0 165.9Q342.4 164.4 345.7 164.4L345.7 164.4Q349.1 164.4 351.5 165.9Q353.9 167.3 355.2 169.8Q356.5 172.3 356.5 175.7L356.5 175.7Q356.5 179.1 355.2 181.6Q353.9 184.1 351.5 185.6Q349.1 187.0 345.7 187.0ZM345.8 182.3L345.8 182.3Q347.3 182.3 348.3 181.4Q349.3 180.6 349.8 179.1Q350.3 177.6 350.3 175.7L350.3 175.7Q350.3 173.8 349.8 172.3Q349.3 170.8 348.3 169.9Q347.3 169.1 345.8 169.1L345.8 169.1Q344.3 169.1 343.2 169.9Q342.2 170.8 341.7 172.3Q341.2 173.8 341.2 175.7L341.2 175.7Q341.2 177.6 341.7 179.1Q342.2 180.6 343.2 181.4Q344.3 182.3 345.8 182.3ZM370.0 187.0L370.0 187.0Q366.6 187.0 364.2 185.5Q361.8 184.1 360.5 181.6Q359.2 179.0 359.2 175.7L359.2 175.7Q359.2 172.4 360.5 169.8Q361.8 167.3 364.2 165.9Q366.6 164.4 369.9 164.4L369.9 164.4Q372.8 164.4 374.9 165.5Q377.1 166.5 378.3 168.4Q379.6 170.3 379.7 172.8L379.7 172.8L374.0 172.8Q373.8 171.2 372.7 170.2Q371.7 169.2 370.0 169.2L370.0 169.2Q368.6 169.2 367.6 169.9Q366.5 170.7 366.0 172.1Q365.4 173.6 365.4 175.6L365.4 175.6Q365.4 177.7 366.0 179.2Q366.5 180.7 367.6 181.4Q368.6 182.2 370.0 182.2L370.0 182.2Q371.1 182.2 371.9 181.8Q372.7 181.3 373.3 180.5Q373.8 179.7 374.0 178.5L374.0 178.5L379.7 178.5Q379.6 181.0 378.4 182.9Q377.1 184.8 375.0 185.9Q372.9 187.0 370.0 187.0ZM393.1 187.0L393.1 187.0Q389.8 187.0 387.4 185.6Q385.0 184.1 383.7 181.6Q382.4 179.1 382.4 175.7L382.4 175.7Q382.4 172.3 383.7 169.8Q385.0 167.3 387.4 165.9Q389.8 164.4 393.1 164.4L393.1 164.4Q396.5 164.4 398.9 165.9Q401.3 167.3 402.6 169.8Q403.9 172.3 403.9 175.7L403.9 175.7Q403.9 179.1 402.6 181.6Q401.3 184.1 398.9 185.6Q396.5 187.0 393.1 187.0ZM393.2 182.3L393.2 182.3Q394.7 182.3 395.7 181.4Q396.7 180.6 397.2 179.1Q397.7 177.6 397.7 175.7L397.7 175.7Q397.7 173.8 397.2 172.3Q396.7 170.8 395.7 169.9Q394.7 169.1 393.2 169.1L393.2 169.1Q391.7 169.1 390.6 169.9Q389.6 170.8 389.1 172.3Q388.6 173.8 388.6 175.7L388.6 175.7Q388.6 177.6 389.1 179.1Q389.6 180.6 390.6 181.4Q391.7 182.3 393.2 182.3ZM413.6 173.9L413.6 173.9L413.6 186.5L407.5 186.5L407.5 164.7L413.3 164.7L413.3 168.6L413.5 168.6Q414.3 166.7 416.0 165.6Q417.7 164.4 420.1 164.4L420.1 164.4Q422.4 164.4 424.1 165.4Q425.8 166.4 426.7 168.3Q427.6 170.1 427.6 172.7L427.6 172.7L427.6 186.5L421.6 186.5L421.6 173.7Q421.6 171.7 420.6 170.6Q419.5 169.5 417.7 169.5L417.7 169.5Q416.5 169.5 415.5 170.0Q414.6 170.5 414.1 171.5Q413.6 172.5 413.6 173.9Z M462.1 186.5L441.3 186.5L441.3 182.1L451.7 172.5Q453.0 171.2 453.9 170.2Q454.8 169.2 455.3 168.2Q455.8 167.2 455.8 166.1L455.8 166.1Q455.8 164.8 455.2 163.9Q454.6 162.9 453.6 162.4Q452.6 161.9 451.3 161.9L451.3 161.9Q450.0 161.9 449.0 162.5Q448.0 163.0 447.4 164.0Q446.9 165.0 446.9 166.4L446.9 166.4L441.1 166.4Q441.1 163.6 442.3 161.5Q443.6 159.4 446.0 158.2Q448.3 157.1 451.3 157.1L451.3 157.1Q454.5 157.1 456.8 158.2Q459.1 159.3 460.4 161.2Q461.7 163.2 461.7 165.7L461.7 165.7Q461.7 167.3 461.0 168.9Q460.4 170.5 458.7 172.5Q457.1 174.4 454.1 177.2L454.1 177.2L449.9 181.3L449.9 181.5L462.1 181.5L462.1 186.5ZM477.6 187.2L477.6 187.2Q474.0 187.2 471.3 185.4Q468.7 183.6 467.3 180.2Q465.9 176.8 465.9 172.0L465.9 172.0Q465.9 167.3 467.3 163.9Q468.7 160.6 471.3 158.8Q474.0 157.1 477.6 157.1L477.6 157.1Q481.3 157.1 483.9 158.8Q486.5 160.6 488.0 163.9Q489.4 167.3 489.4 172.0L489.4 172.0Q489.4 176.8 488.0 180.2Q486.5 183.6 483.9 185.4Q481.3 187.2 477.6 187.2ZM477.6 182.1L477.6 182.1Q480.1 182.1 481.6 179.6Q483.1 177.1 483.1 172.0L483.1 172.0Q483.1 168.7 482.4 166.5Q481.7 164.3 480.5 163.2Q479.3 162.1 477.6 162.1L477.6 162.1Q475.1 162.1 473.6 164.6Q472.2 167.1 472.1 172.0L472.1 172.0Q472.1 175.4 472.8 177.6Q473.5 179.9 474.7 181.0Q476.0 182.1 477.6 182.1ZM514.2 186.5L493.4 186.5L493.4 182.1L503.8 172.5Q505.1 171.2 506.0 170.2Q506.9 169.2 507.4 168.2Q507.8 167.2 507.8 166.1L507.8 166.1Q507.8 164.8 507.3 163.9Q506.7 162.9 505.7 162.4Q504.7 161.9 503.4 161.9L503.4 161.9Q502.0 161.9 501.0 162.5Q500.1 163.0 499.5 164.0Q499.0 165.0 499.0 166.4L499.0 166.4L493.1 166.4Q493.1 163.6 494.4 161.5Q495.7 159.4 498.1 158.2Q500.4 157.1 503.4 157.1L503.4 157.1Q506.5 157.1 508.9 158.2Q511.2 159.3 512.5 161.2Q513.8 163.2 513.8 165.7L513.8 165.7Q513.8 167.3 513.1 168.9Q512.5 170.5 510.8 172.5Q509.2 174.4 506.2 177.2L506.2 177.2L501.9 181.3L501.9 181.5L514.2 181.5L514.2 186.5ZM528.9 186.9L528.9 186.9Q525.9 186.9 523.6 185.8Q521.2 184.7 519.8 182.8Q518.5 180.8 518.4 178.3L518.4 178.3L524.4 178.3Q524.5 180.0 525.8 181.1Q527.1 182.1 528.9 182.1L528.9 182.1Q530.4 182.1 531.5 181.5Q532.6 180.8 533.2 179.7Q533.9 178.5 533.9 177L533.9 177Q533.9 175.5 533.2 174.3Q532.6 173.1 531.4 172.5Q530.3 171.8 528.8 171.8L528.8 171.8Q527.6 171.8 526.4 172.3Q525.2 172.9 524.5 173.8L524.5 173.8L519.0 172.8L520.4 157.5L538.2 157.5L538.2 162.5L525.5 162.5L524.7 169.8L524.9 169.8Q525.7 168.7 527.2 168.0Q528.8 167.3 530.7 167.3L530.7 167.3Q533.3 167.3 535.4 168.5Q537.4 169.7 538.6 171.9Q539.8 174.0 539.8 176.8L539.8 176.8Q539.8 179.8 538.4 182.1Q537.1 184.3 534.6 185.6Q532.2 186.9 528.9 186.9Z M311.1 221.8L305.2 221.8Q305.0 220.1 303.7 219.2Q302.4 218.2 300.2 218.2L300.2 218.2Q298.7 218.2 297.7 218.6Q296.6 219.0 296.1 219.8Q295.6 220.5 295.6 221.5L295.6 221.5Q295.5 222.2 295.9 222.8Q296.3 223.4 296.9 223.8Q297.5 224.2 298.4 224.5Q299.2 224.8 300.2 225.1L300.2 225.1L302.8 225.7Q304.7 226.1 306.3 226.8Q307.9 227.5 309.0 228.6Q310.2 229.6 310.8 231.0Q311.5 232.4 311.5 234.2L311.5 234.2Q311.5 236.9 310.1 238.9Q308.8 240.8 306.3 241.9Q303.8 243.0 300.2 243.0L300.2 243.0Q296.7 243.0 294.1 241.9Q291.5 240.8 290.0 238.7Q288.6 236.6 288.5 233.4L288.5 233.4L294.4 233.4Q294.5 234.9 295.3 235.8Q296.0 236.8 297.3 237.3Q298.5 237.8 300.1 237.8L300.1 237.8Q301.7 237.8 302.8 237.3Q304.0 236.9 304.6 236.1Q305.3 235.3 305.3 234.2L305.3 234.2Q305.3 233.2 304.7 232.6Q304.1 231.9 303.0 231.4Q301.9 231.0 300.3 230.6L300.3 230.6L297.2 229.8Q293.5 228.9 291.4 227.0Q289.2 225.1 289.2 221.9L289.2 221.9Q289.2 219.2 290.7 217.2Q292.1 215.3 294.6 214.2Q297.1 213.1 300.3 213.1L300.3 213.1Q303.5 213.1 305.9 214.2Q308.4 215.3 309.7 217.2Q311.1 219.2 311.1 221.8L311.1 221.8ZM325.0 243.0L325.0 243.0Q321.7 243.0 319.3 241.5Q316.9 240.1 315.6 237.6Q314.3 235.0 314.3 231.7L314.3 231.7Q314.3 228.4 315.6 225.8Q316.9 223.3 319.3 221.9Q321.7 220.4 325.0 220.4L325.0 220.4Q327.9 220.4 330.0 221.5Q332.2 222.5 333.4 224.4Q334.7 226.3 334.8 228.8L334.8 228.8L329.1 228.8Q328.8 227.2 327.8 226.2Q326.8 225.2 325.1 225.2L325.1 225.2Q323.7 225.2 322.7 225.9Q321.6 226.7 321.0 228.1Q320.4 229.6 320.4 231.6L320.4 231.6Q320.4 233.7 321.0 235.2Q321.6 236.7 322.7 237.4Q323.7 238.2 325.1 238.2L325.1 238.2Q326.1 238.2 327.0 237.8Q327.8 237.3 328.4 236.5Q328.9 235.7 329.1 234.5L329.1 234.5L334.8 234.5Q334.6 237.0 333.4 238.9Q332.2 240.8 330.1 241.9Q327.9 243.0 325.0 243.0ZM348.2 243.0L348.2 243.0Q344.9 243.0 342.5 241.6Q340.1 240.1 338.8 237.6Q337.5 235.1 337.5 231.7L337.5 231.7Q337.5 228.3 338.8 225.8Q340.1 223.3 342.5 221.9Q344.9 220.4 348.2 220.4L348.2 220.4Q351.5 220.4 353.9 221.9Q356.3 223.3 357.6 225.8Q359.0 228.3 359.0 231.7L359.0 231.7Q359.0 235.1 357.6 237.6Q356.3 240.1 353.9 241.6Q351.5 243.0 348.2 243.0ZM348.2 238.3L348.2 238.3Q349.7 238.3 350.8 237.4Q351.8 236.6 352.3 235.1Q352.8 233.6 352.8 231.7L352.8 231.7Q352.8 229.8 352.3 228.3Q351.8 226.8 350.8 225.9Q349.7 225.1 348.2 225.1L348.2 225.1Q346.7 225.1 345.7 225.9Q344.7 226.8 344.1 228.3Q343.6 229.8 343.6 231.7L343.6 231.7Q343.6 233.6 344.1 235.1Q344.7 236.6 345.7 237.4Q346.7 238.3 348.2 238.3ZM368.6 242.5L362.6 242.5L362.6 220.7L368.4 220.7L368.4 224.5L368.7 224.5Q369.3 222.5 370.7 221.5Q372.1 220.4 373.9 220.4L373.9 220.4Q374.4 220.4 374.9 220.5Q375.4 220.5 375.8 220.6L375.8 220.6L375.8 226.0Q375.4 225.9 374.6 225.8Q373.9 225.7 373.3 225.7L373.3 225.7Q371.9 225.7 370.9 226.2Q369.8 226.8 369.2 227.8Q368.6 228.9 368.6 230.2L368.6 230.2L368.6 242.5ZM387.5 243.0L387.5 243.0Q384.2 243.0 381.7 241.6Q379.3 240.2 378.0 237.7Q376.7 235.2 376.7 231.7L376.7 231.7Q376.7 228.4 378.0 225.8Q379.3 223.3 381.7 221.9Q384.1 220.4 387.3 220.4L387.3 220.4Q389.4 220.4 391.3 221.1Q393.2 221.8 394.6 223.2Q396.0 224.6 396.8 226.7Q397.5 228.7 397.5 231.5L397.5 231.5L397.5 233.2L379.1 233.2L379.1 229.4L391.8 229.4Q391.8 228.1 391.3 227.1Q390.7 226.1 389.7 225.5Q388.7 225.0 387.4 225.0L387.4 225.0Q386.0 225.0 385.0 225.6Q383.9 226.2 383.3 227.3Q382.7 228.3 382.7 229.6L382.7 229.6L382.7 233.2Q382.7 234.8 383.3 236.0Q383.9 237.2 385.0 237.8Q386.1 238.5 387.6 238.5L387.6 238.5Q388.6 238.5 389.5 238.2Q390.3 237.9 390.9 237.3Q391.5 236.8 391.8 235.9L391.8 235.9L397.4 236.3Q397.0 238.3 395.7 239.8Q394.4 241.3 392.3 242.1Q390.2 243.0 387.5 243.0ZM407.3 242.5L401.3 242.5L401.3 213.5L407.3 213.5L407.3 224.4L407.5 224.4Q407.9 223.5 408.7 222.6Q409.4 221.7 410.7 221.1Q411.9 220.4 413.7 220.4L413.7 220.4Q416.1 220.4 418.1 221.7Q420.1 222.9 421.4 225.4Q422.6 227.9 422.6 231.7L422.6 231.7Q422.6 235.3 421.4 237.8Q420.2 240.3 418.2 241.6Q416.2 242.9 413.7 242.9L413.7 242.9Q412.0 242.9 410.7 242.3Q409.5 241.7 408.7 240.8Q407.9 240.0 407.5 239.1L407.5 239.1L407.3 239.1L407.3 242.5ZM407.2 231.6L407.2 231.6Q407.2 233.6 407.7 235.0Q408.3 236.5 409.3 237.3Q410.3 238.1 411.8 238.1L411.8 238.1Q413.3 238.1 414.3 237.3Q415.3 236.5 415.9 235.0Q416.4 233.5 416.4 231.6L416.4 231.6Q416.4 229.7 415.9 228.3Q415.3 226.9 414.3 226.1Q413.3 225.3 411.8 225.3L411.8 225.3Q410.3 225.3 409.3 226.0Q408.3 226.8 407.7 228.3Q407.2 229.7 407.2 231.6ZM436.1 243.0L436.1 243.0Q432.8 243.0 430.4 241.6Q428.0 240.1 426.7 237.6Q425.4 235.1 425.4 231.7L425.4 231.7Q425.4 228.3 426.7 225.8Q428.0 223.3 430.4 221.9Q432.8 220.4 436.1 220.4L436.1 220.4Q439.4 220.4 441.8 221.9Q444.2 223.3 445.6 225.8Q446.9 228.3 446.9 231.7L446.9 231.7Q446.9 235.1 445.6 237.6Q444.2 240.1 441.8 241.6Q439.4 243.0 436.1 243.0ZM436.2 238.3L436.2 238.3Q437.7 238.3 438.7 237.4Q439.7 236.6 440.2 235.1Q440.7 233.6 440.7 231.7L440.7 231.7Q440.7 229.8 440.2 228.3Q439.7 226.8 438.7 225.9Q437.7 225.1 436.2 225.1L436.2 225.1Q434.6 225.1 433.6 225.9Q432.6 226.8 432.1 228.3Q431.5 229.8 431.5 231.7L431.5 231.7Q431.5 233.6 432.1 235.1Q432.6 236.6 433.6 237.4Q434.6 238.3 436.2 238.3ZM456.7 243.0L456.7 243.0Q454.6 243.0 453.0 242.2Q451.4 241.5 450.4 240.1Q449.5 238.6 449.5 236.5L449.5 236.5Q449.5 234.6 450.1 233.4Q450.8 232.2 452.0 231.4Q453.1 230.7 454.6 230.3Q456.0 229.9 457.7 229.7L457.7 229.7Q459.6 229.5 460.7 229.4Q461.9 229.2 462.4 228.8Q462.9 228.5 462.9 227.8L462.9 227.8L462.9 227.7Q462.9 226.3 462.1 225.6Q461.3 224.9 459.7 224.9L459.7 224.9Q458.1 224.9 457.1 225.6Q456.1 226.3 455.8 227.4L455.8 227.4L450.2 226.9Q450.7 224.9 451.9 223.5Q453.2 222.0 455.1 221.2Q457.1 220.4 459.7 220.4L459.7 220.4Q461.6 220.4 463.2 220.9Q464.9 221.3 466.2 222.2Q467.5 223.1 468.2 224.5Q469.0 225.9 469.0 227.8L469.0 227.8L469.0 242.5L463.3 242.5L463.3 239.5L463.1 239.5Q462.6 240.5 461.7 241.3Q460.8 242.1 459.6 242.5Q458.3 243.0 456.7 243.0ZM458.4 238.8L458.4 238.8Q459.8 238.8 460.8 238.2Q461.8 237.7 462.4 236.8Q463.0 235.9 463.0 234.7L463.0 234.7L463.0 232.4Q462.7 232.6 462.2 232.8Q461.7 232.9 461.1 233.0Q460.5 233.2 459.9 233.2Q459.3 233.3 458.8 233.4L458.8 233.4Q457.7 233.6 456.9 233.9Q456.1 234.3 455.7 234.8Q455.2 235.4 455.2 236.3L455.2 236.3Q455.2 237.5 456.1 238.1Q457.1 238.8 458.4 238.8ZM479.4 242.5L473.4 242.5L473.4 220.7L479.2 220.7L479.2 224.5L479.5 224.5Q480.1 222.5 481.5 221.5Q482.9 220.4 484.7 220.4L484.7 220.4Q485.2 220.4 485.7 220.5Q486.2 220.5 486.6 220.6L486.6 220.6L486.6 226.0Q486.2 225.9 485.4 225.8Q484.7 225.7 484.1 225.7L484.1 225.7Q482.7 225.7 481.7 226.2Q480.6 226.8 480.0 227.8Q479.4 228.9 479.4 230.2L479.4 230.2L479.4 242.5ZM496.4 242.9L496.4 242.9Q493.9 242.9 491.9 241.6Q489.9 240.3 488.7 237.8Q487.6 235.3 487.6 231.7L487.6 231.7Q487.6 227.9 488.8 225.4Q490.0 222.9 492.0 221.7Q494.0 220.4 496.4 220.4L496.4 220.4Q498.2 220.4 499.5 221.1Q500.7 221.7 501.5 222.6Q502.2 223.5 502.6 224.4L502.6 224.4L502.8 224.4L502.8 213.5L508.8 213.5L508.8 242.5L502.9 242.5L502.9 239.1L502.6 239.1Q502.2 240.0 501.4 240.8Q500.6 241.7 499.4 242.3Q498.2 242.9 496.4 242.9ZM498.3 238.1L498.3 238.1Q499.8 238.1 500.8 237.3Q501.8 236.5 502.4 235.0Q502.9 233.6 502.9 231.6L502.9 231.6Q502.9 229.7 502.4 228.3Q501.9 226.8 500.8 226.0Q499.8 225.3 498.3 225.3L498.3 225.3Q496.9 225.3 495.8 226.1Q494.8 226.9 494.3 228.3Q493.8 229.7 493.8 231.6L493.8 231.6Q493.8 233.5 494.3 235.0Q494.8 236.5 495.8 237.3Q496.9 238.1 498.3 238.1Z "/></svg>