<svg width="800" height="400" viewBox="0 0 800 400" xmlns="http://www.w3.org/2000/svg"><mask id="satori_om-id"><rect x="0" y="0" width="800" height="400" fill="#fff"/></mask><rect x="0" y="0" width="800" height="400" fill="white"/><mask id="satori_om-id-0"><rect x="42" y="42" width="205" height="24" fill="#fff"/></mask><mask id="satori_om-id-0-0"><rect x="42" y="42" width="24" height="24" fill="#fff"/></mask><rect x="42" y="42" width="24" height="24" fill="black"/><mask id="satori_om-id-0-1"><rect x="74" y="42" width="173" height="24" fill="#fff"/></mask><path fill="black" d="M79.7 56.2L74.4 46.8L77.9 46.8L81.2 53.1L81.3 53.1L84.6 46.8L88.1 46.8L82.8 56.2L82.8 61.4L79.7 61.4L79.7 56.2ZM95.6 56.7L95.6 56.7L95.6 50.5L98.6 50.5L98.6 61.4L95.7 61.4L95.7 59.4L95.6 59.4Q95.2 60.4 94.4 60.9Q93.5 61.5 92.3 61.5L92.3 61.5Q91.2 61.5 90.3 61.0Q89.5 60.5 89.1 59.6Q88.6 58.7 88.6 57.4L88.6 57.4L88.6 50.5L91.6 50.5L91.6 56.9Q91.6 57.8 92.1 58.4Q92.6 59.0 93.5 59.0L93.5 59.0Q94.0 59.0 94.5 58.7Q95.0 58.5 95.3 58.0Q95.6 57.5 95.6 56.7ZM105.7 61.6L105.7 61.6Q104.0 61.6 102.8 60.9Q101.6 60.2 100.9 59.0Q100.3 57.7 100.3 56.0L100.3 56.0Q100.3 54.3 100.9 53.0Q101.6 51.7 102.8 51.0Q103.9 50.3 105.5 50.3L105.5 50.3Q106.6 50.3 107.6 50.7Q108.5 51.0 109.2 51.7Q109.9 52.4 110.3 53.4Q110.7 54.5 110.7 55.9L110.7 55.9L110.7 56.7L101.5 56.7L101.5 54.8L107.8 54.8Q107.8 54.2 107.5 53.7Q107.3 53.2 106.8 52.9Q106.3 52.6 105.6 52.6L105.6 52.6Q104.9 52.6 104.4 52.9Q103.9 53.2 103.6 53.7Q103.3 54.3 103.2 54.9L103.2 54.9L103.2 56.7Q103.2 57.5 103.5 58.1Q103.9 58.7 104.4 59.0Q105.0 59.3 105.7 59.3L105.7 59.3Q106.2 59.3 106.6 59.2Q107.1 59.0 107.4 58.8Q107.7 58.5 107.8 58.1L107.8 58.1L110.6 58.3Q110.4 59.3 109.7 60.0Q109.1 60.8 108.1 61.2Q107.0 61.6 105.7 61.6ZM111.6 50.5L118.1 50.5L118.1 52.7L111.6 52.7L111.6 50.5ZM113.1 58.4L113.1 47.9L116.1 47.9L116.1 58.0Q116.1 58.4 116.2 58.7Q116.3 58.9 116.6 59.0Q116.8 59.1 117.1 59.1L117.1 59.1Q117.3 59.1 117.5 59.0Q117.7 59.0 117.9 59.0L117.9 59.0L118.3 61.2Q118.1 61.3 117.7 61.4Q117.3 61.5 116.7 61.5L116.7 61.5Q115.6 61.6 114.8 61.2Q114.0 60.9 113.5 60.2Q113.0 59.5 113.1 58.4L113.1 58.4ZM126.0 50.2L122.3 61.4L119.0 61.4L124.1 46.8L128.0 46.8L133.0 61.4L129.8 61.4L126.1 50.2L126.0 50.2ZM122.1 58.1L122.1 55.7L129.9 55.7L129.9 58.1L122.1 58.1ZM141.4 56.7L141.4 56.7L141.4 50.5L144.4 50.5L144.4 61.4L141.5 61.4L141.5 59.4L141.4 59.4Q141.1 60.4 140.2 60.9Q139.3 61.5 138.1 61.5L138.1 61.5Q137.0 61.5 136.2 61.0Q135.4 60.5 134.9 59.6Q134.4 58.7 134.4 57.4L134.4 57.4L134.4 50.5L137.4 50.5L137.4 56.9Q137.4 57.8 138.0 58.4Q138.5 59.0 139.3 59.0L139.3 59.0Q139.9 59.0 140.4 58.7Q140.8 58.5 141.1 58.0Q141.4 57.5 141.4 56.7Z M154.6 46.1L157.2 46.1L152.5 63.6L149.9 63.6L154.6 46.1Z M166.6 61.4L163.5 61.4L163.5 46.8L169.2 46.8Q170.9 46.8 172.1 47.4Q173.2 48.0 173.8 49.1Q174.5 50.1 174.5 51.6L174.5 51.6Q174.5 53.0 173.8 54.1Q173.2 55.1 172.0 55.7Q170.8 56.2 169.2 56.2L169.2 56.2L165.3 56.2L165.3 53.7L168.7 53.7Q169.5 53.7 170.1 53.5Q170.7 53.3 171.0 52.8Q171.3 52.3 171.3 51.6L171.3 51.6Q171.3 50.9 171.0 50.4Q170.7 49.9 170.1 49.6Q169.5 49.3 168.6 49.3L168.6 49.3L166.6 49.3L166.6 61.4ZM168.0 54.8L171.4 54.8L175.0 61.4L171.6 61.4L168.0 54.8ZM181.0 61.6L181.0 61.6Q179.3 61.6 178.1 60.9Q176.9 60.2 176.3 58.9Q175.6 57.6 175.6 56.0L175.6 56.0Q175.6 54.3 176.3 53.0Q176.9 51.7 178.1 51.0Q179.3 50.3 181.0 50.3L181.0 50.3Q182.6 50.3 183.9 51.0Q185.1 51.7 185.7 53.0Q186.4 54.3 186.4 56.0L186.4 56.0Q186.4 57.6 185.7 58.9Q185.1 60.2 183.9 60.9Q182.6 61.6 181.0 61.6ZM181.0 59.2L181.0 59.2Q181.8 59.2 182.3 58.8Q182.8 58.4 183.0 57.6Q183.3 56.9 183.3 55.9L183.3 55.9Q183.3 55.0 183.0 54.2Q182.8 53.5 182.3 53.1Q181.8 52.6 181.0 52.6L181.0 52.6Q180.2 52.6 179.7 53.1Q179.2 53.5 179.0 54.2Q178.7 55.0 178.7 55.9L178.7 55.9Q178.7 56.9 179.0 57.6Q179.2 58.4 179.7 58.8Q180.2 59.2 181.0 59.2ZM191.1 61.4L188.1 61.4L188.1 46.8L191.1 46.8L191.1 52.3L191.2 52.3Q191.4 51.9 191.8 51.4Q192.1 50.9 192.8 50.6Q193.4 50.3 194.3 50.3L194.3 50.3Q195.5 50.3 196.5 50.9Q197.5 51.6 198.1 52.8Q198.7 54.1 198.7 55.9L198.7 55.9Q198.7 57.8 198.1 59.0Q197.5 60.3 196.5 60.9Q195.5 61.6 194.3 61.6L194.3 61.6Q193.4 61.6 192.8 61.3Q192.2 61.0 191.8 60.5Q191.4 60.1 191.2 59.6L191.2 59.6L191.1 59.6L191.1 61.4ZM191.0 55.9L191.0 55.9Q191.0 56.9 191.3 57.6Q191.6 58.3 192.1 58.7Q192.6 59.1 193.3 59.1L193.3 59.1Q194.1 59.1 194.6 58.7Q195.1 58.3 195.4 57.6Q195.6 56.9 195.6 55.9L195.6 55.9Q195.6 55.0 195.4 54.3Q195.1 53.5 194.6 53.1Q194.1 52.7 193.3 52.7L193.3 52.7Q192.6 52.7 192.1 53.1Q191.6 53.5 191.3 54.2Q191.0 54.9 191.0 55.9ZM205.3 61.6L205.3 61.6Q203.7 61.6 202.5 60.9Q201.3 60.2 200.6 58.9Q200.0 57.6 200.0 56.0L200.0 56.0Q200.0 54.3 200.6 53.0Q201.3 51.7 202.5 51.0Q203.7 50.3 205.3 50.3L205.3 50.3Q207.0 50.3 208.2 51.0Q209.4 51.7 210.0 53.0Q210.7 54.3 210.7 56.0L210.7 56.0Q210.7 57.6 210.0 58.9Q209.4 60.2 208.2 60.9Q207.0 61.6 205.3 61.6ZM205.3 59.2L205.3 59.2Q206.1 59.2 206.6 58.8Q207.1 58.4 207.4 57.6Q207.6 56.9 207.6 55.9L207.6 55.9Q207.6 55.0 207.4 54.2Q207.1 53.5 206.6 53.1Q206.1 52.6 205.3 52.6L205.3 52.6Q204.6 52.6 204.1 53.1Q203.6 53.5 203.3 54.2Q203.0 55.0 203.0 55.9L203.0 55.9Q203.0 56.9 203.3 57.6Q203.6 58.4 204.1 58.8Q204.6 59.2 205.3 59.2ZM217.3 61.6L217.3 61.6Q215.6 61.6 214.4 60.9Q213.2 60.2 212.6 58.9Q211.9 57.6 211.9 56.0L211.9 56.0Q211.9 54.3 212.6 53.0Q213.2 51.8 214.4 51.0Q215.6 50.3 217.3 50.3L217.3 50.3Q218.7 50.3 219.8 50.8Q220.8 51.4 221.5 52.3Q222.1 53.2 222.2 54.5L222.2 54.5L219.3 54.5Q219.2 53.7 218.7 53.2Q218.1 52.7 217.3 52.7L217.3 52.7Q216.6 52.7 216.1 53.1Q215.6 53.4 215.3 54.2Q215.0 54.9 215.0 55.9L215.0 55.9Q215.0 57.0 215.3 57.7Q215.6 58.4 216.1 58.8Q216.6 59.2 217.3 59.2L217.3 59.2Q217.8 59.2 218.3 59.0Q218.7 58.8 218.9 58.4Q219.2 58.0 219.3 57.4L219.3 57.4L222.2 57.4Q222.1 58.6 221.5 59.6Q220.9 60.5 219.8 61.1Q218.7 61.6 217.3 61.6ZM228.7 61.6L228.7 61.6Q227.1 61.6 225.9 60.9Q224.6 60.2 224.0 58.9Q223.3 57.6 223.3 56.0L223.3 56.0Q223.3 54.3 224.0 53.0Q224.6 51.7 225.9 51.0Q227.1 50.3 228.7 50.3L228.7 50.3Q230.4 50.3 231.6 51.0Q232.8 51.7 233.4 53.0Q234.1 54.3 234.1 56.0L234.1 56.0Q234.1 57.6 233.4 58.9Q232.8 60.2 231.6 60.9Q230.4 61.6 228.7 61.6ZM228.7 59.2L228.7 59.2Q229.5 59.2 230.0 58.8Q230.5 58.4 230.7 57.6Q231.0 56.9 231.0 55.9L231.0 55.9Q231.0 55.0 230.7 54.2Q230.5 53.5 230.0 53.1Q229.5 52.6 228.7 52.6L228.7 52.6Q228.0 52.6 227.4 53.1Q226.9 53.5 226.7 54.2Q226.4 55.0 226.4 55.9L226.4 55.9Q226.4 56.9 226.7 57.6Q226.9 58.4 227.4 58.8Q228.0 59.2 228.7 59.2ZM238.8 55.1L238.8 55.1L238.8 61.4L235.7 61.4L235.7 50.5L238.6 50.5L238.6 52.4L238.7 52.4Q239.1 51.4 240.0 50.9Q240.8 50.3 242.0 50.3L242.0 50.3Q243.2 50.3 244.0 50.8Q244.9 51.3 245.3 52.2Q245.8 53.2 245.8 54.4L245.8 54.4L245.8 61.4L242.8 61.4L242.8 55.0Q242.8 54.0 242.3 53.4Q241.7 52.8 240.8 52.8L240.8 52.8Q240.2 52.8 239.8 53.1Q239.3 53.4 239.0 53.9Q238.8 54.4 238.8 55.1Z "/><mask id="satori_om-id-1"><rect x="125" y="124" width="550" height="152" fill="#fff"/></mask><rect x="125" y="124" width="550" height="152" fill="black"/><path fill="white" d="M267.3 186.5L261.1 186.5L261.1 157.5L272.6 157.5Q275.9 157.5 278.2 158.6Q280.6 159.8 281.8 161.9Q283.0 164.1 283.0 167.0L283.0 167.0Q283.0 169.9 281.8 171.9Q280.5 174.0 278.2 175.1Q275.8 176.2 272.4 176.2L272.4 176.2L264.8 176.2L264.8 171.3L271.5 171.3Q273.2 171.3 274.4 170.8Q275.5 170.3 276.1 169.4Q276.7 168.4 276.7 167.0L276.7 167.0Q276.7 165.5 276.1 164.5Q275.5 163.5 274.4 163.0Q273.2 162.5 271.4 162.5L271.4 162.5L267.3 162.5L267.3 186.5ZM270.2 173.3L276.8 173.3L284.1 186.5L277.3 186.5L270.2 173.3ZM296.4 187.0L296.4 187.0Q293.1 187.0 290.7 185.6Q288.3 184.1 287.0 181.6Q285.7 179.1 285.7 175.7L285.7 175.7Q285.7 172.3 287.0 169.8Q288.3 167.3 290.7 165.9Q293.1 164.4 296.4 164.4L296.4 164.4Q299.7 164.4 302.1 165.9Q304.6 167.3 305.9 169.8Q307.2 172.3 307.2 175.7L307.2 175.7Q307.2 179.1 305.9 181.6Q304.6 184.1 302.1 185.6Q299.7 187.0 296.4 187.0ZM296.5 182.3L296.5 182.3Q298.0 182.3 299.0 181.4Q300.0 180.6 300.5 179.1Q301.0 177.6 301.0 175.7L301.0 175.7Q301.0 173.8 300.5 172.3Q300.0 170.8 299.0 169.9Q298.0 169.1 296.5 169.1L296.5 169.1Q294.9 169.1 293.9 169.9Q292.9 170.8 292.4 172.3Q291.8 173.8 291.8 175.7L291.8 175.7Q291.8 177.6 292.4 179.1Q292.9 180.6 293.9 181.4Q294.9 182.3 296.5 182.3ZM316.9 186.5L310.9 186.5L310.9 157.5L317.0 157.5L317.0 168.4L317.1 168.4Q317.5 167.5 318.3 166.6Q319.1 165.7 320.3 165.1Q321.5 164.4 323.4 164.4L323.4 164.4Q325.7 164.4 327.8 165.7Q329.8 166.9 331.0 169.4Q332.2 171.9 332.2 175.7L332.2 175.7Q332.2 179.3 331.0 181.8Q329.8 184.3 327.8 185.6Q325.8 186.9 323.3 186.9L323.3 186.9Q321.6 186.9 320.3 186.3Q319.1 185.7 318.3 184.8Q317.6 184.0 317.1 183.1L317.1 183.1L316.9 183.1L316.9 186.5ZM316.8 175.6L316.8 175.6Q316.8 177.6 317.4 179.0Q317.9 180.5 318.9 181.3Q320.0 182.1 321.4 182.1L321.4 182.1Q322.9 182.1 323.9 181.3Q324.9 180.5 325.5 179.0Q326.0 177.5 326.0 175.6L326.0 175.6Q326.0 173.7 325.5 172.3Q325.0 170.9 323.9 170.1Q322.9 169.3 321.4 169.3L321.4 169.3Q319.9 169.3 318.9 170.0Q317.9 170.8 317.4 172.3Q316.8 173.7 316.8 175.6ZM345.7 187.0L345.7 187.0Q342.4 187.0 340.0 185.6Q337.6 184.1 336.3 181.6Q335.0 179.1 335.0 175.7L335.0 175.7Q335.0 172.3 336.3 169.8Q337.6 167.3 340.0 165.9Q342.4 164.4 345.7 164.4L345.7 164.4Q349.1 164.4 351.5 165.9Q353.9 167.3 355.2 169.8Q356.5 172.3 356.5 175.7L356.5 175.7Q356.5 179.1 355.2 181.6Q353.9 184.1 351.5 185.6Q349.1 187.0 345.7 187.0ZM345.8 182.3L345.8 182.3Q347.3 182.3 348.3 181.4Q349.3 180.6 349.8 179.1Q350.3 177.6 350.3 175.7L350.3 175.7Q350.3 173.8 349.8 172.3Q349.3 170.8 348.3 169.9Q347.3 169.1 345.8 169.1L345.8 169.1Q344.3 169.1 343.2 169.9Q342.2 170.8 341.7 172.3Q341.2 173.8 341.2 175.7L341.2 175.7Q341.2 177.6 341.7 179.1Q342.2 180.6 343.2 181.4Q344.3 182.3 345.8 182.3ZM370.0 187.0L370.0 187.0Q366.6 187.0 364.2 185.5Q361.8 184.1 360.5 181.6Q359.2 179.0 359.2 175.7L359.2 175.7Q359.2 172.4 360.5 169.8Q361.8 167.3 364.2 165.9Q366.6 164.4 369.9 164.4L369.9 164.4Q372.8 164.4 374.9 165.5Q377.1 166.5 378.3 168.4Q379.6 170.3 379.7 172.8L379.7 172.8L374.0 172.8Q373.8 171.2 372.7 170.2Q371.7 169.2 370.0 169.2L370.0 169.2Q368.6 169.2 367.6 169.9Q366.5 170.7 366.0 172.1Q365.4 173.6 365.4 175.6L365.4 175.6Q365.4 177.7 366.0 179.2Q366.5 180.7 367.6 181.4Q368.6 182.2 370.0 182.2L370.0 182.2Q371.1 182.2 371.9 181.8Q372.7 181.3 373.3 180.5Q373.8 179.7 374.0 178.5L374.0 178.5L379.7 178.5Q379.6 181.0 378.4 182.9Q377.1 184.8 375.0 185.9Q372.9 187.0 370.0 187.0ZM393.1 187.0L393.1 187.0Q389.8 187.0 387.4 185.6Q385.0 184.1 383.7 181.6Q382.4 179.1 382.4 175.7L382.4 175.7Q382.4 172.3 383.7 169.8Q385.0 167.3 387.4 165.9Q389.8 164.4 393.1 164.4L393.1 164.4Q396.5 164.4 398.9 165.9Q401.3 167.3 402.6 169.8Q403.9 172.3 403.9 175.7L403.9 175.7Q403.9 179.1 402.6 181.6Q401.3 184.1 398.9 185.6Q396.5 187.0 393.1 187.0ZM393.2 182.3L393.2 182.3Q394.7 182.3 395.7 181.4Q396.7 180.6 397.2 179.1Q397.7 177.6 397.7 175.7L397.7 175.7Q397.7 173.8 397.2 172.3Q396.7 170.8 395.7 169.9Q394.7 169.1 393.2 169.1L393.2 169.1Q391.7 169.1 390.6 169.9Q389.6 170.8 389.1 172.3Q388.6 173.8 388.6 175.7L388.6 175.7Q388.6 177.6 389.1 179.1Q389.6 180.6 390.6 181.4Q391.7 182.3 393.2 182.3ZM413.6 173.9L413.6 173.9L413.6 186.5L407.5 186.5L407.5 164.7L413.3 164.7L413.3 168.6L413.5 168.6Q414.3 166.7 416.0 165.6Q417.7 164.4 420.1 164.4L420.1 164.4Q422.4 164.4 424.1 165.4Q425.8 166.4 426.7 168.3Q427.6 170.1 427.6 172.7L427.6 172.7L427.6 186.5L421.6 186.5L421.6 173.7Q421.6 171.7 420.6 170.6Q419.5 169.5 417.7 169.5L417.7 169.5Q416.5 169.5 415.5 170.0Q414.6 170.5 414.1 171.5Q413.6 172.5 413.6 173.9Z M462.1 186.5L441.3 186.5L441.3 182.1L451.7 172.5Q453.0 171.2 453.9 170.2Q454.8 169.2 455.3 168.2Q455.8 167.2 455.8 166.1L455.8 166.1Q455.8 164.8 455.2 163.9Q454.6 162.9 453.6 162.4Q452.6 161.9 451.3 161.9L451.3 161.9Q450.0 161.9 449.0 162.5Q448.0 163.0 447.4 164.0Q446.9 165.0 446.9 166.4L446.9 166.4L441.1 166.4Q441.1 163.6 442.3 161.5Q443.6 159.4 446.0 158.2Q448.3 157.1 451.3 157.1L451.3 157.1Q454.5 157.1 456.8 158.2Q459.1 159.3 460.4 161.2Q461.7 163.2 461.7 165.7L461.7 165.7Q461.7 167.3 461.0 168.9Q460.4 170.5 458.7 172.5Q457.1 174.4 454.1 177.2L454.1 177.2L449.9 181.3L449.9 181.5L462.1 181.5L462.1 186.5ZM477.6 187.2L477.6 187.2Q474.0 187.2 471.3 185.4Q468.7 183.6 467.3 180.2Q465.9 176.8 465.9 172.0L465.9 172.0Q465.9 167.3 467.3 163.9Q468.7 160.6 471.3 158.8Q474.0 157.1 477.6 157.1L477.6 157.1Q481.3 157.1 483.9 158.8Q486.5 160.6 488.0 163.9Q489.4 167.3 489.4 172.0L489.4 172.0Q489.4 176.8 488.0 180.2Q486.5 183.6 483.9 185.4Q481.3 187.2 477.6 187.2ZM477.6 182.1L477.6 182.1Q480.1 182.1 481.6 179.6Q483.1 177.1 483.1 172.0L483.1 172.0Q483.1 168.7 482.4 166.5Q481.7 164.3 480.5 163.2Q479.3 162.1 477.6 162.1L477.6 162.1Q475.1 162.1 473.6 164.6Q472.2 167.1 472.1 172.0L472.1 172.0Q472.1 175.4 472.8 177.6Q473.5 179.9 474.7 181.0Q476.0 182.1 477.6 182.1ZM514.2 186.5L493.4 186.5L493.4 182.1L503.8 172.5Q505.1 171.2 506.0 170.2Q506.9 169.2 507.4 168.2Q507.8 167.2 507.8 166.1L507.8 166.1Q507.8 164.8 507.3 163.9Q506.7 162.9 505.7 162.4Q504.7 161.9 503.4 161.9L503.4 161.9Q502.0 161.9 501.0 162.5Q500.1 163.0 499.5 164.0Q499.0 165.0 499.0 166.4L499.0 166.4L493.1 166.4Q493.1 163.6 494.4 161.5Q495.7 159.4 498.1 158.2Q500.4 157.1 503.4 157.1L503.4 157.1Q506.5 157.1 508.9 158.2Q511.2 159.3 512.5 161.2Q513.8 163.2 513.8 165.7L513.8 165.7Q513.8 167.3 513.1 168.9Q512.5 170.5 510.8 172.5Q509.2 174.4 506.2 177.2L506.2 177.2L501.9 181.3L501.9 181.5L514.2 181.5L514.2 186.5ZM528.9 186.9L528.9 186.9Q525.9 186.9 523.6 185.8Q521.2 184.7 519.8 182.8Q518.5 180.8 518.4 178.3L518.4 178.3L524.4 178.3Q524.5 180.0 525.8 181.1Q527.1 182.1 528.9 182.1L528.9 182.1Q530.4 182.1 531.5 181.5Q532.6 180.8 533.2 179.7Q533.9 178.5 533.9 177L533.9 177Q533.9 175.5 533.2 174.3Q532.6 173.1 531.4 172.5Q530.3 171.8 528.8 171.8L528.8 171.8Q527.6 171.8 526.4 172.3Q525.2 172.9 524.5 173.8L524.5 173.8L519.0 172.8L520.4 157.5L538.2 157.5L538.2 162.5L525.5 162.5L524.7 169.8L524.9 169.8Q525.7 168.7 527.2 168.0Q528.8 167.3 530.7 167.3L530.7 167.3Q533.3 167.3 535.4 168.5Q537.4 169.7 538.6 171.9Q539.8 174.0 539.8 176.8L539.8 176.8Q539.8 179.8 538.4 182.1Q537.1 184.3 534.6 185.6Q532.2 186.9 528.9 186.9Z M311.1 221.8L305.2 221.8Q305.0 220.1 303.7 219.2Q302.4 218.2 300.2 218.2L300.2 218.2Q298.7 218.2 297.7 218.6Q296.6 219.0 296.1 219.8Q295.6 220.5 295.6 221.5L295.6 221.5Q295.5 222.2 295.9 222.8Q296.3 223.4 296.9 223.8Q297.5 224.2 298.4 224.5Q299.2 224.8 300.2 225.1L300.2 225.1L302.8 225.7Q304.7 226.1 306.3 226.8Q307.9 227.5 309.0 228.6Q310.2 229.6 310.8 231.0Q311.5 232.4 311.5 234.2L311.5 234.2Q311.5 236.9 310.1 238.9Q308.8 240.8 306.3 241.9Q303.8 243.0 300.2 243.0L300.2 243.0Q296.7 243.0 294.1 241.9Q291.5 240.8 290.0 238.7Q288.6 236.6 288.5 233.4L288.5 233.4L294.4 233.4Q294.5 234.9 295.3 235.8Q296.0 236.8 297.3 237.3Q298.5 237.8 300.1 237.8L300.1 237.8Q301.7 237.8 302.8 237.3Q304.0 236.9 304.6 236.1Q305.3 235.3 305.3 234.2L305.3 234.2Q305.3 233.2 304.7 232.6Q304.1 231.9 303.0 231.4Q301.9 231.0 300.3 230.6L300.3 230.6L297.2 229.8Q293.5 228.9 291.4 227.0Q289.2 225.1 289.2 221.9L289.2 221.9Q289.2 219.2 290.7 217.2Q292.1 215.3 294.6 214.2Q297.1 213.1 300.3 213.1L300.3 213.1Q303.5 213.1 305.9 214.2Q308.4 215.3 309.7 217.2Q311.1 219.2 311.1 221.8L311.1 221.8ZM325.0 243.0L325.0 243.0Q321.7 243.0 319.3 241.5Q316.9 240.1 315.6 237.6Q314.3 235.0 314.3 231.7L314.3 231.7Q314.3 228.4 315.6 225.8Q316.9 223.3 319.3 221.9Q321.7 220.4 325.0 220.4L325.0 220.4Q327.9 220.4 330.0 221.5Q332.2 222.5 333.4 224.4Q334.7 226.3 334.8 228.8L334.8 228.8L329.1 228.8Q328.8 227.2 327.8 226.2Q326.8 225.2 325.1 225.2L325.1 225.2Q323.7 225.2 322.7 225.9Q321.6 226.7 321.0 228.1Q320.4 229.6 320.4 231.6L320.4 231.6Q320.4 233.7 321.0 235.2Q321.6 236.7 322.7 237.4Q323.7 238.2 325.1 238.2L325.1 238.2Q326.1 238.2 327.0 237.8Q327.8 237.3 328.4 236.5Q328.9 235.7 329.1 234.5L329.1 234.5L334.8 234.5Q334.6 237.0 333.4 238.9Q332.2 240.8 330.1 241.9Q327.9 243.0 325.0 243.0ZM348.2 243.0L348.2 243.0Q344.9 243.0 342.5 241.6Q340.1 240.1 338.8 237.6Q337.5 235.1 337.5 231.7L337.5 231.7Q337.5 228.3 338.8 225.8Q340.1 223.3 342.5 221.9Q344.9 220.4 348.2 220.4L348.2 220.4Q351.5 220.4 353.9 221.9Q356.3 223.3 357.6 225.8Q359.0 228.3 359.0 231.7L359.0 231.7Q359.0 235.1 357.6 237.6Q356.3 240.1 353.9 241.6Q351.5 243.0 348.2 243.0ZM348.2 238.3L348.2 238.3Q349.7 238.3 350.8 237.4Q351.8 236.6 352.3 235.1Q352.8 233.6 352.8 231.7L352.8 231.7Q352.8 229.8 352.3 228.3Q351.8 226.8 350.8 225.9Q349.7 225.1 348.2 225.1L348.2 225.1Q346.7 225.1 345.7 225.9Q344.7 226.8 344.1 228.3Q343.6 229.8 343.6 231.7L343.6 231.7Q343.6 233.6 344.1 235.1Q344.7 236.6 345.7 237.4Q346.7 238.3 348.2 238.3ZM368.6 242.5L362.6 242.5L362.6 220.7L368.4 220.7L368.4 224.5L368.7 224.5Q369.3 222.5 370.7 221.5Q372.1 220.4 373.9 220.4L373.9 220.4Q374.4 220.4 374.9 220.5Q375.4 220.5 375.8 220.6L375.8 220.6L375.8 226.0Q375.4 225.9 374.6 225.8Q373.9 225.7 373.3 225.7L373.3 225.7Q371.9 225.7 370.9 226.2Q369.8 226.8 369.2 227.8Q368.6 228.9 368.6 230.2L368.6 230.2L368.6 242.5ZM387.5 243.0L387.5 243.0Q384.2 243.0 381.7 241.6Q379.3 240.2 378.0 237.7Q376.7 235.2 376.7 231.7L376.7 231.7Q376.7 228.4 378.0 225.8Q379.3 223.3 381.7 221.9Q384.1 220.4 387.3 220.4L387.3 220.4Q389.4 220.4 391.3 221.1Q393.2 221.8 394.6 223.2Q396.0 224.6 396.8 226.7Q397.5 228.7 397.5 231.5L397.5 231.5L397.5 233.2L379.1 233.2L379.1 229.4L391.8 229.4Q391.8 228.1 391.3 227.1Q390.7 226.1 389.7 225.5Q388.7 225.0 387.4 225.0L387.4 225.0Q386.0 225.0 385.0 225.6Q383.9 226.2 383.3 227.3Q382.7 228.3 382.7 229.6L382.7 229.6L382.7 233.2Q382.7 234.8 383.3 236.0Q383.9 237.2 385.0 237.8Q386.1 238.5 387.6 238.5L387.6 238.5Q388.6 238.5 389.5 238.2Q390.3 237.9 390.9 237.3Q391.5 236.8 391.8 235.9L391.8 235.9L397.4 236.3Q397.0 238.3 395.7 239.8Q394.4 241.3 392.3 242.1Q390.2 243.0 387.5 243.0ZM407.3 242.5L401.3 242.5L401.3 213.5L407.3 213.5L407.3 224.4L407.5 224.4Q407.9 223.5 408.7 222.6Q409.4 221.7 410.7 221.1Q411.9 220.4 413.7 220.4L413.7 220.4Q416.1 220.4 418.1 221.7Q420.1 222.9 421.4 225.4Q422.6 227.9 422.6 231.7L422.6 231.7Q422.6 235.3 421.4 237.8Q420.2 240.3 418.2 241.6Q416.2 242.9 413.7 242.9L413.7 242.9Q412.0 242.9 410.7 242.3Q409.5 241.7 408.7 240.8Q407.9 240.0 407.5 239.1L407.5 239.1L407.3 239.1L407.3 242.5ZM407.2 231.6L407.2 231.6Q407.2 233.6 407.7 235.0Q408.3 236.5 409.3 237.3Q410.3 238.1 411.8 238.1L411.8 238.1Q413.3 238.1 414.3 237.3Q415.3 236.5 415.9 235.0Q416.4 233.5 416.4 231.6L416.4 231.6Q416.4 229.7 415.9 228.3Q415.3 226.9 414.3 226.1Q413.3 225.3 411.8 225.3L411.8 225.3Q410.3 225.3 409.3 226.0Q408.3 226.8 407.7 228.3Q407.2 229.7 407.2 231.6ZM436.1 243.0L436.1 243.0Q432.8 243.0 430.4 241.6Q428.0 240.1 426.7 237.6Q425.4 235.1 425.4 231.7L425.4 231.7Q425.4 228.3 426.7 225.8Q428.0 223.3 430.4 221.9Q432.8 220.4 436.1 220.4L436.1 220.4Q439.4 220.4 441.8 221.9Q444.2 223.3 445.6 225.8Q446.9 228.3 446.9 231.7L446.9 231.7Q446.9 235.1 445.6 237.6Q444.2 240.1 441.8 241.6Q439.4 243.0 436.1 243.0ZM436.2 238.3L436.2 238.3Q437.7 238.3 438.7 237.4Q439.7 236.6 440.2 235.1Q440.7 233.6 440.7 231.7L440.7 231.7Q440.7 229.8 440.2 228.3Q439.7 226.8 438.7 225.9Q437.7 225.1 436.2 225.1L436.2 225.1Q434.6 225.1 433.6 225.9Q432.6 226.8 432.1 228.3Q431.5 229.8 431.5 231.7L431.5 231.7Q431.5 233.6 432.1 235.1Q432.6 236.6 433.6 237.4Q434.6 238.3 436.2 238.3ZM456.7 243.0L456.7 243.0Q454.6 243.0 453.0 242.2Q451.4 241.5 450.4 240.1Q449.5 238.6 449.5 236.5L449.5 236.5Q449.5 234.6 450.1 233.4Q450.8 232.2 452.0 231.4Q453.1 230.7 454.6 230.3Q456.0 229.9 457.7 229.7L457.7 229.7Q459.6 229.5 460.7 229.4Q461.9 229.2 462.4 228.8Q462.9 228.5 462.9 227.8L462.9 227.8L462.9 227.7Q462.9 226.3 462.1 225.6Q461.3 224.9 459.7 224.9L459.7 224.9Q458.1 224.9 457.1 225.6Q456.1 226.3 455.8 227.4L455.8 227.4L450.2 226.9Q450.7 224.9 451.9 223.5Q453.2 222.0 455.1 221.2Q457.1 220.4 459.7 220.4L459.7 220.4Q461.6 220.4 463.2 220.9Q464.9 221.3 466.2 222.2Q467.5 223.1 468.2 224.5Q469.0 225.9 469.0 227.8L469.0 227.8L469.0 242.5L463.3 242.5L463.3 239.5L463.1 239.5Q462.6 240.5 461.7 241.3Q460.8 242.1 459.6 242.5Q458.3 243.0 456.7 243.0ZM458.4 238.8L458.4 238.8Q459.8 238.8 460.8 238.2Q461.8 237.7 462.4 236.8Q463.0 235.9 463.0 234.7L463.0 234.7L463.0 232.4Q462.7 232.6 462.2 232.8Q461.7 232.9 461.1 233.0Q460.5 233.2 459.9 233.2Q459.3 233.3 458.8 233.4L458.8 233.4Q457.7 233.6 456.9 233.9Q456.1 234.3 455.7 234.8Q455.2 235.4 455.2 236.3L455.2 236.3Q455.2 237.5 456.1 238.1Q457.1 238.8 458.4 238.8ZM479.4 242.5L473.4 242.5L473.4 220.7L479.2 220.7L479.2 224.5L479.5 224.5Q480.1 222.5 481.5 221.5Q482.9 220.4 484.7 220.4L484.7 220.4Q485.2 220.4 485.7 220.5Q486.2 220.5 486.6 220.6L486.6 220.6L486.6 226.0Q486.2 225.9 485.4 225.8Q484.7 225.7 484.1 225.7L484.1 225.7Q482.7 225.7 481.7 226.2Q480.6 226.8 480.0 227.8Q479.4 228.9 479.4 230.2L479.4 230.2L479.4 242.5ZM496.4 242.9L496.4 242.9Q493.9 242.9 491.9 241.6Q489.9 240.3 488.7 237.8Q487.6 235.3 487.6 231.7L487.6 231.7Q487.6 227.9 488.8 225.4Q490.0 222.9 492.0 221.7Q494.0 220.4 496.4 220.4L496.4 220.4Q498.2 220.4 499.5 221.1Q500.7 221.7 501.5 222.6Q502.2 223.5 502.6 224.4L502.6 224.4L502.8 224.4L502.8 213.5L508.8 213.5L508.8 242.5L502.9 242.5L502.9 239.1L502.6 239.1Q502.2 240.0 501.4 240.8Q500.6 241.7 499.4 242.3Q498.2 242.9 496.4 242.9ZM498.3 238.1L498.3 238.1Q499.8 238.1 500.8 237.3Q501.8 236.5 502.4 235.0Q502.9 233.6 502.9 231.6L502.9 231.6Q502.9 229.7 502.4 228.3Q501.9 226.8 500.8 226.0Q499.8 225.3 498.3 225.3L498.3 225.3Q496.9 225.3 495.8 226.1Q494.8 226.9 494.3 228.3Q493.8 229.7 493.8 231.6L493.8 231.6Q493.8 233.5 494.3 235.0Q494.8 236.5 495.8 237.3Q496.9 238.1 498.3 238.1Z "/></svg>